# xmcd
#
# Track frame offsets:
#	150
#	11443
#	26269
#	41590
#	61624
#	75164
#	98876
#	114333
#	126883
#	148170
#	169837
#	183760
#	202075
#
# Disc length: 2851 seconds
#
# Revision: 0
# Processed by: cddbd v1.5.2PL0 Copyright (c) Steve Scherf et al.
# Submitted via: EasyCDDAExtractor 16.0.6.1
#
DISCID=9c0b210d
DTITLE=Μπουλάς Σάκης - Ανθολόγιο-Σ. Μπουλάς
DYEAR=2014
DGENRE=Ποικίλη
TTITLE0=Μπριγιόλ [Γ. Γιοκαρίνης-Σ. Μπουλάς]
TTITLE1=Μπανάκι μανάκι [Λ. Μαχαιρίτσας-Σ. Μπουλάς]
TTITLE2=Κάτσε στο παπί μου [Μ. Ρακιτζής-ίδιος κ Σ. Μπουλάς]
TTITLE3=Αχ! Αλή Μπαμπά [Μ. Ρακιτζής-Σ. Μπουλάς]
TTITLE4=Ρέγγαι και λακέρδαι [Γ. Γιοκαρίνης-Σ. Μπουλάς]
TTITLE5=Το φλασάκι [Λ. Μαχαιρίτσας-Σ. Μπουλάς]
TTITLE6=Ζαμανφού [Τάκης Γκριτζέλης-ίδιος κ Σ. Μπουλάς]
TTITLE7=Θα βάλω δυναμίτη [Λάκης Παπαδόπουλος]
TTITLE8=Ούγκα ουγκάγκα [Μ. Ρακιτζής-Σ. Μπουλάς]
TTITLE9=Τι είν' η πατρίδα μας [Μ. Ρακιτζής-Σ. Μπουλάς]
TTITLE10=Τσιφτετέλι μαρς [Σ. Μπουλάς]
TTITLE11=Ο αράπης [Γιάννης Ζουγανέλης-Σ. Μπουλάς]
TTITLE12=Η Μπούλυ (Wooly Bully)[bonus track, D. Samudio]
EXTD=
EXTT0=
EXTT1=
EXTT2=
EXTT3=
EXTT4=
EXTT5=
EXTT6=
EXTT7=
EXTT8=
EXTT9=
EXTT10=
EXTT11=
EXTT12=
PLAYORDER=
